<?xml version="1.0" encoding="UTF-8" standalone="no"?>
<!-- Created with Inkscape (http://www.inkscape.org/) -->

<svg
   version="1.1"
   id="svg1"
   width="206.74121"
   height="66.225693"
   viewBox="0 0 206.74121 66.225692"
   sodipodi:docname="rpa_tree.svg"
   inkscape:version="1.3.2 (091e20ef0f, 2023-11-25, custom)"
   xmlns:inkscape="http://www.inkscape.org/namespaces/inkscape"
   xmlns:sodipodi="http://sodipodi.sourceforge.net/DTD/sodipodi-0.dtd"
   xmlns="http://www.w3.org/2000/svg"
   xmlns:svg="http://www.w3.org/2000/svg">
  <defs
     id="defs1" />
  <sodipodi:namedview
     id="namedview1"
     pagecolor="#ffffff"
     bordercolor="#999999"
     borderopacity="1"
     inkscape:showpageshadow="0"
     inkscape:pageopacity="0"
     inkscape:pagecheckerboard="0"
     inkscape:deskcolor="#d1d1d1"
     inkscape:zoom="2.0222356"
     inkscape:cx="-86.290637"
     inkscape:cy="47.224962"
     inkscape:window-width="2560"
     inkscape:window-height="1365"
     inkscape:window-x="0"
     inkscape:window-y="0"
     inkscape:window-maximized="1"
     inkscape:current-layer="g1">
    <inkscape:page
       x="0"
       y="0"
       inkscape:label="11"
       id="page1"
       width="206.74121"
       height="66.225693"
       margin="0"
       bleed="0" />
  </sodipodi:namedview>
  <g
     id="g1"
     inkscape:groupmode="layer"
     inkscape:label="11"
     transform="translate(-442.98901,-538.90254)">
    <text
       id="text94"
       xml:space="preserve"
       transform="matrix(1.3333333,0,0,1.3333333,442.55067,604.836)"><tspan
         style="font-variant:normal;font-weight:normal;font-size:9.9626px;font-family:'Latin Modern Roman';writing-mode:lr-tb;fill:#000000;fill-opacity:1;fill-rule:nonzero;stroke:none"
         x="0 6.226625 11.207925 16.743145 22.278366 26.706741"
         y="0"
         sodipodi:role="line"
         id="tspan94">Ladder</tspan></text>
    <text
       id="text95"
       xml:space="preserve"
       transform="matrix(1.3333333,0,0,1.3333333,506.36533,604.836)"><tspan
         style="font-variant:normal;font-weight:normal;font-size:9.9626px;font-family:'Latin Modern Roman';writing-mode:lr-tb;fill:#000000;fill-opacity:1;fill-rule:nonzero;stroke:none"
         x="0 5.3997293 12.594719"
         y="0"
         sodipodi:role="line"
         id="tspan95">LTR</tspan></text>
    <text
       id="text96"
       xml:space="preserve"
       transform="matrix(1.3333333,0,0,1.3333333,563.05867,604.836)"><tspan
         style="font-variant:normal;font-weight:normal;font-size:9.9626px;font-family:'Latin Modern Roman';writing-mode:lr-tb;fill:#000000;fill-opacity:1;fill-rule:nonzero;stroke:none"
         x="0 6.5065742 13.701564"
         y="0"
         sodipodi:role="line"
         id="tspan96">RTL</tspan></text>
    <text
       id="text97"
       xml:space="preserve"
       transform="matrix(1.3333333,0,0,1.3333333,615.87733,604.836)"><tspan
         style="font-variant:normal;font-weight:normal;font-size:9.9626px;font-family:'Latin Modern Roman';writing-mode:lr-tb;fill:#000000;fill-opacity:1;fill-rule:nonzero;stroke:none"
         x="0 7.1949897 12.17629 20.199171"
         y="0"
         sodipodi:role="line"
         id="tspan97">Comb</tspan></text>
    <text
       id="text98"
       xml:space="preserve"
       transform="matrix(1.3333333,0,0,1.3333333,487.98133,576.096)"><tspan
         style="font-variant:normal;font-weight:normal;font-size:9.9626px;font-family:'Latin Modern Roman';writing-mode:lr-tb;fill:#000000;fill-opacity:1;fill-rule:nonzero;stroke:none"
         x="0"
         y="0"
         id="tspan98">4</tspan></text>
    <text
       id="text99"
       xml:space="preserve"
       transform="matrix(1.3333333,0,0,1.3333333,601.36667,576.096)"><tspan
         style="font-variant:normal;font-weight:normal;font-size:9.9626px;font-family:'Latin Modern Roman';writing-mode:lr-tb;fill:#000000;fill-opacity:1;fill-rule:nonzero;stroke:none"
         x="0"
         y="0"
         id="tspan99">5</tspan></text>
    <text
       id="text100"
       xml:space="preserve"
       transform="matrix(1.3333333,0,0,1.3333333,544.67467,547.74933)"><tspan
         style="font-variant:normal;font-weight:normal;font-size:9.9626px;font-family:'Latin Modern Roman';writing-mode:lr-tb;fill:#000000;fill-opacity:1;fill-rule:nonzero;stroke:none"
         x="0"
         y="0"
         id="tspan100">3</tspan></text>
    <path
       id="path100"
       d="M 57.76979,39.51541 27.68047,24.4692"
       style="fill:none;stroke:#000000;stroke-width:0.3985;stroke-linecap:butt;stroke-linejoin:miter;stroke-miterlimit:10;stroke-dasharray:none;stroke-opacity:1"
       transform="matrix(1.3333333,0,0,-1.3333333,462.956,600.26)" />
    <path
       id="path101"
       d="M -1.19551,1.59401 C -1.09587,0.99626 0,0.09961 0.29886,0 0,-0.09961 -1.09587,-0.99626 -1.19551,-1.59401"
       style="fill:none;stroke:#000000;stroke-width:0.31879;stroke-linecap:round;stroke-linejoin:round;stroke-miterlimit:10;stroke-dasharray:none;stroke-opacity:1"
       transform="matrix(-1.19248,0.59626667,0.59626667,1.19248,499.86331,567.6344)" />
    <text
       id="text101"
       xml:space="preserve"
       transform="matrix(1.3333333,0,0,1.3333333,496.732,555.08133)"><tspan
         style="font-variant:normal;font-weight:normal;font-size:7.9701px;font-family:'Latin Modern Mono';writing-mode:lr-tb;fill:#000000;fill-opacity:1;fill-rule:nonzero;stroke:none"
         x="0 4.2345142 8.4690285 12.703543"
         y="0"
         sodipodi:role="line"
         id="tspan101">True</tspan></text>
    <path
       id="path102"
       d="M 69.79082,39.51541 99.88016,24.4692"
       style="fill:none;stroke:#000000;stroke-width:0.3985;stroke-linecap:butt;stroke-linejoin:miter;stroke-miterlimit:10;stroke-dasharray:none;stroke-opacity:1"
       transform="matrix(1.3333333,0,0,-1.3333333,462.956,600.26)" />
    <path
       id="path103"
       d="M -1.19551,1.59401 C -1.09587,0.99626 0,0.09961 0.29886,0 0,-0.09961 -1.09587,-0.99626 -1.19551,-1.59401"
       style="fill:none;stroke:#000000;stroke-width:0.31879;stroke-linecap:round;stroke-linejoin:round;stroke-miterlimit:10;stroke-dasharray:none;stroke-opacity:1"
       transform="matrix(1.19248,0.59626667,0.59626667,-1.19248,596.12952,567.6344)" />
    <text
       id="text103"
       xml:space="preserve"
       transform="matrix(1.3333333,0,0,1.3333333,573.85333,555.08133)"><tspan
         style="font-variant:normal;font-weight:normal;font-size:7.9701px;font-family:'Latin Modern Mono';writing-mode:lr-tb;fill:#000000;fill-opacity:1;fill-rule:nonzero;stroke:none"
         x="0 4.2345142 8.4690285 12.703543 16.938057"
         y="0"
         sodipodi:role="line"
         id="tspan103">False</tspan></text>
    <path
       id="path104"
       d="M 15.24959,15.24979 7.27509,7.27539"
       style="fill:none;stroke:#000000;stroke-width:0.3985;stroke-linecap:butt;stroke-linejoin:miter;stroke-miterlimit:10;stroke-dasharray:none;stroke-opacity:1"
       transform="matrix(1.3333333,0,0,-1.3333333,462.956,600.26)" />
    <path
       id="path105"
       d="M -1.19551,1.59401 C -1.09587,0.99626 0,0.09961 0.29886,0 0,-0.09961 -1.09587,-0.99626 -1.19551,-1.59401"
       style="fill:none;stroke:#000000;stroke-width:0.31879;stroke-linecap:round;stroke-linejoin:round;stroke-miterlimit:10;stroke-dasharray:none;stroke-opacity:1"
       transform="matrix(-0.9428,0.94277333,0.94277333,0.9428,472.65612,590.55948)" />
    <text
       id="text105"
       xml:space="preserve"
       transform="matrix(1.3333333,0,0,1.3333333,452.69333,586.43733)"><tspan
         style="font-variant:normal;font-weight:normal;font-size:7.9701px;font-family:'Latin Modern Mono';writing-mode:lr-tb;fill:#000000;fill-opacity:1;fill-rule:nonzero;stroke:none"
         x="0 4.2345142 8.4690285 12.703543"
         y="0"
         sodipodi:role="line"
         id="tspan105">True</tspan></text>
    <path
       id="path106"
       d="m 27.27061,15.24979 7.97451,-7.9744"
       style="fill:none;stroke:#000000;stroke-width:0.3985;stroke-linecap:butt;stroke-linejoin:miter;stroke-miterlimit:10;stroke-dasharray:none;stroke-opacity:1"
       transform="matrix(1.3333333,0,0,-1.3333333,462.956,600.26)" />
    <path
       id="path107"
       d="M -1.19551,1.59401 C -1.09587,0.99626 0,0.09961 0.29886,0 0,-0.09961 -1.09587,-0.99626 -1.19551,-1.59401"
       style="fill:none;stroke:#000000;stroke-width:0.31879;stroke-linecap:round;stroke-linejoin:round;stroke-miterlimit:10;stroke-dasharray:none;stroke-opacity:1"
       transform="matrix(0.9428,0.94277333,0.94277333,-0.9428,509.94949,590.55948)" />
    <text
       id="text107"
       xml:space="preserve"
       transform="matrix(1.3333333,0,0,1.3333333,507.328,586.43733)"><tspan
         style="font-variant:normal;font-weight:normal;font-size:7.9701px;font-family:'Latin Modern Mono';writing-mode:lr-tb;fill:#000000;fill-opacity:1;fill-rule:nonzero;stroke:none"
         x="0 4.2345142 8.4690285 12.703543 16.938057"
         y="0"
         sodipodi:role="line"
         id="tspan107">False</tspan></text>
    <path
       id="path108"
       d="M 100.29001,15.24979 92.3155,7.27539"
       style="fill:none;stroke:#000000;stroke-width:0.3985;stroke-linecap:butt;stroke-linejoin:miter;stroke-miterlimit:10;stroke-dasharray:none;stroke-opacity:1"
       transform="matrix(1.3333333,0,0,-1.3333333,462.956,600.26)" />
    <path
       id="path109"
       d="M -1.19551,1.59401 C -1.09587,0.99626 0,0.09961 0.29886,0 0,-0.09961 -1.09587,-0.99626 -1.19551,-1.59401"
       style="fill:none;stroke:#000000;stroke-width:0.31879;stroke-linecap:round;stroke-linejoin:round;stroke-miterlimit:10;stroke-dasharray:none;stroke-opacity:1"
       transform="matrix(-0.9428,0.94277333,0.94277333,0.9428,586.04333,590.55948)" />
    <text
       id="text109"
       xml:space="preserve"
       transform="matrix(1.3333333,0,0,1.3333333,566.08,586.43733)"><tspan
         style="font-variant:normal;font-weight:normal;font-size:7.9701px;font-family:'Latin Modern Mono';writing-mode:lr-tb;fill:#000000;fill-opacity:1;fill-rule:nonzero;stroke:none"
         x="0 4.2345142 8.4690285 12.703543"
         y="0"
         sodipodi:role="line"
         id="tspan109">True</tspan></text>
    <path
       id="path110"
       d="m 112.31104,15.24979 7.9745,-7.9744"
       style="fill:none;stroke:#000000;stroke-width:0.3985;stroke-linecap:butt;stroke-linejoin:miter;stroke-miterlimit:10;stroke-dasharray:none;stroke-opacity:1"
       transform="matrix(1.3333333,0,0,-1.3333333,462.956,600.26)" />
    <path
       id="path111"
       d="M -1.19551,1.59401 C -1.09587,0.99626 0,0.09961 0.29886,0 0,-0.09961 -1.09587,-0.99626 -1.19551,-1.59401"
       style="fill:none;stroke:#000000;stroke-width:0.31879;stroke-linecap:round;stroke-linejoin:round;stroke-miterlimit:10;stroke-dasharray:none;stroke-opacity:1"
       transform="matrix(0.9428,0.94277333,0.94277333,-0.9428,623.33672,590.55948)" />
    <text
       id="text111"
       xml:space="preserve"
       transform="matrix(1.3333333,0,0,1.3333333,620.71467,586.43733)"><tspan
         style="font-variant:normal;font-weight:normal;font-size:7.9701px;font-family:'Latin Modern Mono';writing-mode:lr-tb;fill:#000000;fill-opacity:1;fill-rule:nonzero;stroke:none"
         x="0 4.2345142 8.4690285 12.703543 16.938057"
         y="0"
         sodipodi:role="line"
         id="tspan111">False</tspan></text>
  </g>
</svg>
