<?xml version="1.0" encoding="UTF-8" standalone="no"?>
<!-- Created with Inkscape (http://www.inkscape.org/) -->

<svg
   version="1.1"
   id="svg1"
   width="292.91867"
   height="80.08741"
   viewBox="0 0 292.91867 80.087409"
   sodipodi:docname="rpa_table.svg"
   inkscape:version="1.3.2 (091e20ef0f, 2023-11-25, custom)"
   xmlns:inkscape="http://www.inkscape.org/namespaces/inkscape"
   xmlns:sodipodi="http://sodipodi.sourceforge.net/DTD/sodipodi-0.dtd"
   xmlns="http://www.w3.org/2000/svg"
   xmlns:svg="http://www.w3.org/2000/svg">
  <defs
     id="defs1" />
  <sodipodi:namedview
     id="namedview1"
     pagecolor="#ffffff"
     bordercolor="#999999"
     borderopacity="1"
     inkscape:showpageshadow="0"
     inkscape:pageopacity="0"
     inkscape:pagecheckerboard="0"
     inkscape:deskcolor="#d1d1d1"
     inkscape:zoom="2.0222356"
     inkscape:cx="217.82823"
     inkscape:cy="53.653491"
     inkscape:window-width="2560"
     inkscape:window-height="1365"
     inkscape:window-x="0"
     inkscape:window-y="0"
     inkscape:window-maximized="1"
     inkscape:current-layer="g1">
    <inkscape:page
       x="0"
       y="0"
       inkscape:label="11"
       id="page1"
       width="292.91867"
       height="80.08741"
       margin="0"
       bleed="0" />
  </sodipodi:namedview>
  <g
     id="g1"
     inkscape:groupmode="layer"
     inkscape:label="11"
     transform="translate(-138.9,-532.4046)">
    <path
       id="path60"
       d="m 5.4260156,-1.2182734 c 0,-0.058594 -0.023437,-0.082031 -0.082031,-0.082031 -0.1054688,0 -0.2578125,0.058594 -0.4101563,0.140625 -0.1875,0.1171875 -0.328125,0.24609376 -0.3515625,0.32812501 -0.011719,0.0703125 -0.035156,0.1171875 -0.058594,0.1640625 -0.023437,0.0234375 -0.023437,0.046875 -0.035156,0.0585938 -0.1289062,0.0703125 -0.2695312,0.0703125 -0.4101562,0.0703125 H 2.0744531 c 0.28125,-0.24609375 0.5039063,-0.55078121 0.6796875,-0.91406251 0.3046875,-0.609375 0.5039063,-1.40625 0.6914063,-2.1445313 0.2460937,-0.9492187 0.5039062,-2.0742187 0.9726562,-2.6718749 h 1.1601563 c 0.1054687,0 0.2578125,-0.058594 0.4101562,-0.140625 0.2109375,-0.1171875 0.3515625,-0.2695313 0.3515625,-0.3398438 0,-0.046875 -0.035156,-0.058594 -0.09375,-0.058594 H 3.8674219 c -0.6445313,0 -1.3359375,0.011719 -1.8984375,0.1757813 -0.1523438,0.035156 -0.2929688,0.09375 -0.421875,0.1523437 -0.3632813,0.140625 -0.66796877,0.3398438 -0.91406252,0.5976563 -0.1640625,0.1640625 -0.29296875,0.375 -0.36328125,0.6328125 0,0.058594 0.0351563,0.082031 0.09375,0.082031 0.09375,0 0.2578125,-0.058594 0.41015625,-0.140625 0.1875,-0.1054687 0.32812502,-0.234375 0.33984372,-0.328125 0.046875,-0.1640625 0.1054688,-0.2929687 0.1992188,-0.3867187 0.023437,-0.023437 0.046875,-0.035156 0.058594,-0.046875 l 0.1875,-0.058594 c 0.4804688,-0.140625 1.078125,-0.140625 1.640625,-0.140625 h 0.65625 c -0.082031,0.070312 -0.1523437,0.1640625 -0.2226562,0.2578125 -0.4804688,0.609375 -0.7851563,1.7929688 -1.03125,2.8007813 -0.1757813,0.7148437 -0.375,1.4882812 -0.6679688,2.0859375 -0.1054687,0.23437501 -0.234375,0.43359376 -0.3984375,0.58593751 H 0.50414063 c -0.09375,0 -0.2578125,0.046875 -0.3984375,0.140625 -0.2109375,0.1171875 -0.3515625,0.26953125 -0.3515625,0.3515625 0,0.03515625 0.0234375,0.05859375 0.0820313,0.05859375 H 3.4221094 c 0.3984375,0 0.8203125,-0.12890625 1.1601562,-0.328125 0.3046875,-0.1640625 0.5742188,-0.375 0.7382813,-0.64453125 0.046875,-0.0703125 0.09375,-0.16406251 0.1054687,-0.25781221 z m 0,0"
       style="fill:#000000;fill-opacity:1;fill-rule:nonzero;stroke:none"
       aria-label="I"
       transform="matrix(1.3333333,0,0,1.3333333,155.32,543.41733)" />
    <text
       id="text60"
       xml:space="preserve"
       transform="matrix(1.3333333,0,0,1.3333333,162.55333,545.41067)"><tspan
         style="font-variant:normal;font-weight:normal;font-size:6.9738px;font-family:'Latin Modern Roman';writing-mode:lr-tb;fill:#000000;fill-opacity:1;fill-rule:nonzero;stroke:none"
         x="0 5.7840695 10.497662"
         y="0"
         sodipodi:role="line"
         id="tspan61">RPA</tspan><tspan
         style="font-variant:normal;font-weight:normal;font-size:9.9626px;font-family:'Latin Modern Roman';writing-mode:lr-tb;fill:#000000;fill-opacity:1;fill-rule:nonzero;stroke:none"
         x="16.875"
         y="-1.495"
         id="tspan62">:</tspan><tspan
         style="font-variant:normal;font-weight:normal;font-size:9.9626px;font-family:'Latin Modern Roman';writing-mode:lr-tb;fill:#000000;fill-opacity:1;fill-rule:nonzero;stroke:none"
         x="31.597 34.414425"
         y="-1.495"
         sodipodi:role="line"
         id="tspan63">[2</tspan></text>
    <path
       id="path63"
       d="m 5.4614609,-1.7458516 c 0,-0.1757812 -0.1523437,-0.1757812 -0.2578125,-0.1757812 H 1.0083359 c -0.09375,0 -0.25781246,0 -0.25781246,0.1757812 0,0.1757813 0.17578125,0.1757813 0.25781246,0.1757813 h 4.1953125 c 0.09375,0 0.2578125,0 0.2578125,-0.1757813 z m 0,0"
       style="fill:#000000;fill-opacity:1;fill-rule:nonzero;stroke:none"
       aria-label="−"
       transform="matrix(1.3333333,0,0,1.3333333,215.08133,538.59733)" />
    <text
       id="text63"
       xml:space="preserve"
       transform="matrix(1.3333333,0,0,1.3333333,223.38267,538.59733)"><tspan
         style="font-variant:normal;font-weight:normal;font-size:6.9738px;font-family:'Latin Modern Roman';writing-mode:lr-tb;fill:#000000;fill-opacity:1;fill-rule:nonzero;stroke:none"
         x="0"
         y="0"
         id="tspan64">1</tspan><tspan
         style="font-variant:normal;font-weight:normal;font-size:9.9626px;font-family:'Latin Modern Roman';writing-mode:lr-tb;fill:#000000;fill-opacity:1;fill-rule:nonzero;stroke:none"
         x="4.4699998"
         y="3.615"
         id="tspan65">]</tspan></text>
    <path
       id="path65"
       d="m 7.5111562,-5.2963984 c 0,-0.7734375 -0.65625,-1.5117188 -1.96875,-1.5117188 H 2.31975 c -0.1875,0 -0.2929688,0 -0.2929688,0.1992188 0,0.1171875 0.082031,0.1171875 0.28125,0.1171875 0.1289063,0 0.3164063,0.011719 0.4335938,0.011719 0.1523437,0.023437 0.2109375,0.058594 0.2109375,0.1640625 0,0.035156 0,0.070312 -0.035156,0.1875 L 1.581469,-0.77296064 c -0.09375,0.38671875 -0.1171875,0.46875 -0.9023437,0.46875 -0.17578125,0 -0.28125,0 -0.28125,0.1875 0,0.1171875025 0.1171875,0.1171875025 0.15234375,0.1171875025 L 1.8158437,-0.03467969 2.4486562,-0.02296094 c 0.2226563,0 0.4453125,0.0234375025 0.6445313,0.0234375025 0.070312,0 0.1992187,0 0.1992187,-0.1992187525 0,-0.10546875 -0.082031,-0.10546875 -0.2695312,-0.10546875 -0.375,0 -0.65625,0 -0.65625,-0.1875 0,-0.0585938 0.023437,-0.10546875 0.035156,-0.1640625 L 3.022875,-3.1518672 h 1.6875 c 1.4179687,0 2.8007812,-1.03125 2.8007812,-2.1445312 z M 6.585375,-5.5424922 c 0,0.3984375 -0.1992188,1.2539063 -0.5859375,1.6054688 -0.5039063,0.4453125 -1.1015625,0.5273437 -1.5351563,0.5273437 h -1.40625 l 0.6796875,-2.7070312 c 0.082031,-0.3515625 0.1054688,-0.375 0.5390625,-0.375 H 5.226 c 0.8320312,0 1.359375,0.2695312 1.359375,0.9492187 z m 0,0"
       style="fill:#000000;fill-opacity:1;fill-rule:nonzero;stroke:none"
       aria-label="P"
       transform="matrix(1.3333333,0,0,1.3333333,233.032,543.41733)" />
    <text
       id="text65"
       xml:space="preserve"
       transform="matrix(1.3333333,0,0,1.3333333,241.56,545.41067)"><tspan
         style="font-variant:normal;font-weight:normal;font-size:6.9738px;font-family:'Latin Modern Roman';writing-mode:lr-tb;fill:#000000;fill-opacity:1;fill-rule:nonzero;stroke:none"
         x="0"
         y="0"
         id="tspan66">0</tspan><tspan
         style="font-variant:normal;font-weight:normal;font-size:9.9626px;font-family:'Latin Modern Roman';writing-mode:lr-tb;fill:#000000;fill-opacity:1;fill-rule:nonzero;stroke:none"
         x="16.424 19.241423"
         y="-1.495"
         sodipodi:role="line"
         id="tspan67">[3</tspan></text>
    <path
       id="path67"
       d="m 5.4595391,-1.7458516 c 0,-0.1757812 -0.1523438,-0.1757812 -0.2578125,-0.1757812 H 1.0064141 c -0.09375,0 -0.25781254,0 -0.25781254,0.1757812 0,0.1757813 0.17578125,0.1757813 0.25781254,0.1757813 h 4.1953125 c 0.09375,0 0.2578125,0 0.2578125,-0.1757813 z m 0,0"
       style="fill:#000000;fill-opacity:1;fill-rule:nonzero;stroke:none"
       aria-label="−"
       transform="matrix(1.3333333,0,0,1.3333333,273.85733,538.59733)" />
    <text
       id="text67"
       xml:space="preserve"
       transform="matrix(1.3333333,0,0,1.3333333,282.16,538.59733)"><tspan
         style="font-variant:normal;font-weight:normal;font-size:6.9738px;font-family:'Latin Modern Roman';writing-mode:lr-tb;fill:#000000;fill-opacity:1;fill-rule:nonzero;stroke:none"
         x="0"
         y="0"
         id="tspan68">1</tspan><tspan
         style="font-variant:normal;font-weight:normal;font-size:9.9626px;font-family:'Latin Modern Roman';writing-mode:lr-tb;fill:#000000;fill-opacity:1;fill-rule:nonzero;stroke:none"
         x="4.4689999"
         y="3.615"
         id="tspan69">]</tspan></text>
    <path
       id="path69"
       d="m 7.5121641,-5.2963984 c 0,-0.7734375 -0.65625,-1.5117188 -1.96875,-1.5117188 H 2.3207578 c -0.1875,0 -0.2929687,0 -0.2929687,0.1992188 0,0.1171875 0.082031,0.1171875 0.28125,0.1171875 0.1289062,0 0.3164062,0.011719 0.4335937,0.011719 0.1523438,0.023437 0.2109375,0.058594 0.2109375,0.1640625 0,0.035156 0,0.070312 -0.035156,0.1875 l -1.3359375,5.35546876 c -0.09375,0.38671875 -0.1171875,0.46875 -0.90234379,0.46875 -0.17578125,0 -0.28125,0 -0.28125,0.1875 0,0.1171875025 0.1171875,0.1171875025 0.15234375,0.1171875025 L 1.8168516,-0.03467969 2.4496641,-0.02296094 c 0.2226562,0 0.4453125,0.0234375025 0.6445312,0.0234375025 0.070312,0 0.1992188,0 0.1992188,-0.1992187525 0,-0.10546875 -0.082031,-0.10546875 -0.2695313,-0.10546875 -0.375,0 -0.65625,0 -0.65625,-0.1875 0,-0.0585938 0.023437,-0.10546875 0.035156,-0.1640625 l 0.621094,-2.49609376 h 1.6875 c 1.4179688,0 2.8007813,-1.03125 2.8007813,-2.1445312 z M 6.5863828,-5.5424922 c 0,0.3984375 -0.1992187,1.2539063 -0.5859375,1.6054688 -0.5039062,0.4453125 -1.1015625,0.5273437 -1.5351562,0.5273437 h -1.40625 l 0.6796875,-2.7070312 c 0.082031,-0.3515625 0.1054687,-0.375 0.5390625,-0.375 h 0.9492187 c 0.8320313,0 1.359375,0.2695312 1.359375,0.9492187 z m 0,0"
       style="fill:#000000;fill-opacity:1;fill-rule:nonzero;stroke:none"
       aria-label="P"
       transform="matrix(1.3333333,0,0,1.3333333,291.808,543.41733)" />
    <text
       id="text69"
       xml:space="preserve"
       transform="matrix(1.3333333,0,0,1.3333333,300.336,545.41067)"><tspan
         style="font-variant:normal;font-weight:normal;font-size:6.9738px;font-family:'Latin Modern Roman';writing-mode:lr-tb;fill:#000000;fill-opacity:1;fill-rule:nonzero;stroke:none"
         x="0"
         y="0"
         id="tspan70">0</tspan><tspan
         style="font-variant:normal;font-weight:normal;font-size:9.9626px;font-family:'Latin Modern Roman';writing-mode:lr-tb;fill:#000000;fill-opacity:1;fill-rule:nonzero;stroke:none"
         x="16.424999 19.242424"
         y="-1.495"
         sodipodi:role="line"
         id="tspan71">[4</tspan></text>
    <path
       id="path71"
       d="m 5.4605469,-1.7458516 c 0,-0.1757812 -0.1523438,-0.1757812 -0.2578125,-0.1757812 H 1.0074219 c -0.09375,0 -0.25781252,0 -0.25781252,0.1757812 0,0.1757813 0.17578125,0.1757813 0.25781252,0.1757813 h 4.1953125 c 0.09375,0 0.2578125,0 0.2578125,-0.1757813 z m 0,0"
       style="fill:#000000;fill-opacity:1;fill-rule:nonzero;stroke:none"
       aria-label="−"
       transform="matrix(1.3333333,0,0,1.3333333,332.63333,538.59733)" />
    <text
       id="text71"
       xml:space="preserve"
       transform="matrix(1.3333333,0,0,1.3333333,340.936,538.59733)"><tspan
         style="font-variant:normal;font-weight:normal;font-size:6.9738px;font-family:'Latin Modern Roman';writing-mode:lr-tb;fill:#000000;fill-opacity:1;fill-rule:nonzero;stroke:none"
         x="0"
         y="0"
         id="tspan72">1</tspan><tspan
         style="font-variant:normal;font-weight:normal;font-size:9.9626px;font-family:'Latin Modern Roman';writing-mode:lr-tb;fill:#000000;fill-opacity:1;fill-rule:nonzero;stroke:none"
         x="4.4689999"
         y="3.615"
         id="tspan73">]</tspan></text>
    <path
       id="path73"
       d="m 7.5121719,-5.2963984 c 0,-0.7734375 -0.65625,-1.5117188 -1.96875,-1.5117188 H 2.3207656 c -0.1875,0 -0.2929687,0 -0.2929687,0.1992188 0,0.1171875 0.082031,0.1171875 0.28125,0.1171875 0.1289062,0 0.3164062,0.011719 0.4335937,0.011719 0.1523438,0.023437 0.2109375,0.058594 0.2109375,0.1640625 0,0.035156 0,0.070312 -0.035156,0.1875 l -1.3359375,5.35546876 c -0.09375,0.38671875 -0.1171875,0.46875 -0.90234377,0.46875 -0.17578125,0 -0.28125,0 -0.28125,0.1875 0,0.1171875025 0.1171875,0.1171875025 0.15234375,0.1171875025 L 1.8168594,-0.03467969 2.4496719,-0.02296094 c 0.2226562,0 0.4453125,0.0234375025 0.6445312,0.0234375025 0.070312,0 0.1992188,0 0.1992188,-0.1992187525 0,-0.10546875 -0.082031,-0.10546875 -0.2695313,-0.10546875 -0.375,0 -0.65625,0 -0.65625,-0.1875 0,-0.0585938 0.023437,-0.10546875 0.035156,-0.1640625 l 0.621094,-2.49609376 h 1.6875 c 1.4179688,0 2.8007813,-1.03125 2.8007813,-2.1445312 z M 6.5863906,-5.5424922 c 0,0.3984375 -0.1992187,1.2539063 -0.5859375,1.6054688 -0.5039062,0.4453125 -1.1015625,0.5273437 -1.5351562,0.5273437 h -1.40625 l 0.6796875,-2.7070312 c 0.082031,-0.3515625 0.1054687,-0.375 0.5390625,-0.375 h 0.9492187 c 0.8320313,0 1.359375,0.2695312 1.359375,0.9492187 z m 0,0"
       style="fill:#000000;fill-opacity:1;fill-rule:nonzero;stroke:none"
       aria-label="P"
       transform="matrix(1.3333333,0,0,1.3333333,350.58533,543.41733)" />
    <text
       id="text73"
       xml:space="preserve"
       transform="matrix(1.3333333,0,0,1.3333333,359.11333,545.41067)"><tspan
         style="font-variant:normal;font-weight:normal;font-size:6.9738px;font-family:'Latin Modern Roman';writing-mode:lr-tb;fill:#000000;fill-opacity:1;fill-rule:nonzero;stroke:none"
         x="0"
         y="0"
         id="tspan74">0</tspan><tspan
         style="font-variant:normal;font-weight:normal;font-size:9.9626px;font-family:'Latin Modern Roman';writing-mode:lr-tb;fill:#000000;fill-opacity:1;fill-rule:nonzero;stroke:none"
         x="16.424 19.241423"
         y="-1.495"
         sodipodi:role="line"
         id="tspan75">[5</tspan></text>
    <path
       id="path75"
       d="m 5.4605547,-1.7458516 c 0,-0.1757812 -0.1523438,-0.1757812 -0.2578125,-0.1757812 H 1.0074297 c -0.09375,0 -0.25781251,0 -0.25781251,0.1757812 0,0.1757813 0.17578125,0.1757813 0.25781251,0.1757813 h 4.1953125 c 0.09375,0 0.2578125,0 0.2578125,-0.1757813 z m 0,0"
       style="fill:#000000;fill-opacity:1;fill-rule:nonzero;stroke:none"
       aria-label="−"
       transform="matrix(1.3333333,0,0,1.3333333,391.41067,538.59733)" />
    <text
       id="text75"
       xml:space="preserve"
       transform="matrix(1.3333333,0,0,1.3333333,399.712,538.59733)"><tspan
         style="font-variant:normal;font-weight:normal;font-size:6.9738px;font-family:'Latin Modern Roman';writing-mode:lr-tb;fill:#000000;fill-opacity:1;fill-rule:nonzero;stroke:none"
         x="0"
         y="0"
         id="tspan76">1</tspan><tspan
         style="font-variant:normal;font-weight:normal;font-size:9.9626px;font-family:'Latin Modern Roman';writing-mode:lr-tb;fill:#000000;fill-opacity:1;fill-rule:nonzero;stroke:none"
         x="4.4699998"
         y="3.615"
         id="tspan77">]</tspan></text>
    <path
       id="path77"
       d="m 7.5131797,-5.2963984 c 0,-0.7734375 -0.65625,-1.5117188 -1.96875,-1.5117188 H 2.3217734 c -0.1875,0 -0.2929687,0 -0.2929687,0.1992188 0,0.1171875 0.082031,0.1171875 0.28125,0.1171875 0.1289062,0 0.3164062,0.011719 0.4335937,0.011719 0.1523438,0.023437 0.2109375,0.058594 0.2109375,0.1640625 0,0.035156 0,0.070312 -0.035156,0.1875 l -1.3359375,5.35546876 c -0.09375,0.38671875 -0.1171875,0.46875 -0.90234376,0.46875 -0.17578125,0 -0.28125,0 -0.28125,0.1875 0,0.1171875025 0.1171875,0.1171875025 0.15234375,0.1171875025 L 1.8178672,-0.03467969 2.4506797,-0.02296094 c 0.2226562,0 0.4453125,0.0234375025 0.6445312,0.0234375025 0.070312,0 0.1992188,0 0.1992188,-0.1992187525 0,-0.10546875 -0.082031,-0.10546875 -0.2695313,-0.10546875 -0.375,0 -0.65625,0 -0.65625,-0.1875 0,-0.0585938 0.023437,-0.10546875 0.035156,-0.1640625 l 0.621094,-2.49609376 h 1.6875 c 1.4179688,0 2.8007813,-1.03125 2.8007813,-2.1445312 z M 6.5873984,-5.5424922 c 0,0.3984375 -0.1992187,1.2539063 -0.5859375,1.6054688 -0.5039062,0.4453125 -1.1015625,0.5273437 -1.5351562,0.5273437 h -1.40625 l 0.6796875,-2.7070312 c 0.082031,-0.3515625 0.1054687,-0.375 0.5390625,-0.375 h 0.9492187 c 0.8320313,0 1.359375,0.2695312 1.359375,0.9492187 z m 0,0"
       style="fill:#000000;fill-opacity:1;fill-rule:nonzero;stroke:none"
       aria-label="P"
       transform="matrix(1.3333333,0,0,1.3333333,409.36133,543.41733)" />
    <text
       id="text77"
       xml:space="preserve"
       transform="matrix(1.3333333,0,0,1.3333333,417.88933,545.41067)"><tspan
         style="font-variant:normal;font-weight:normal;font-size:6.9738px;font-family:'Latin Modern Roman';writing-mode:lr-tb;fill:#000000;fill-opacity:1;fill-rule:nonzero;stroke:none"
         x="0"
         y="0"
         id="tspan78">0</tspan></text>
    <path
       id="path78"
       d="M 0,0 H 219.689"
       style="fill:none;stroke:#000000;stroke-width:0.398;stroke-linecap:butt;stroke-linejoin:miter;stroke-miterlimit:10;stroke-dasharray:none;stroke-opacity:1"
       transform="matrix(1.3333333,0,0,-1.3333333,138.9,548.46533)" />
    <path
       id="path79"
       d="M 0,0 V 11.955"
       style="fill:none;stroke:#000000;stroke-width:0.398;stroke-linecap:butt;stroke-linejoin:miter;stroke-miterlimit:10;stroke-dasharray:none;stroke-opacity:1"
       transform="matrix(1.3333333,0,0,-1.3333333,139.16533,564.14)" />
    <text
       id="text79"
       xml:space="preserve"
       transform="matrix(1.3333333,0,0,1.3333333,161.64533,559.35867)"><tspan
         style="font-variant:normal;font-weight:normal;font-size:9.9626px;font-family:'Latin Modern Roman';writing-mode:lr-tb;fill:#000000;fill-opacity:1;fill-rule:nonzero;stroke:none"
         x="0 5.3997293 12.594719"
         y="0"
         sodipodi:role="line"
         id="tspan79">LTR</tspan></text>
    <path
       id="path80"
       d="M 0,0 V 11.955"
       style="fill:none;stroke:#000000;stroke-width:0.398;stroke-linecap:butt;stroke-linejoin:miter;stroke-miterlimit:10;stroke-dasharray:none;stroke-opacity:1"
       transform="matrix(1.3333333,0,0,-1.3333333,196.44667,564.14)" />
    <text
       id="text80"
       xml:space="preserve"
       transform="matrix(1.3333333,0,0,1.3333333,212.15333,559.35867)"><tspan
         style="font-variant:normal;font-weight:normal;font-size:9.9626px;font-family:'Latin Modern Mono';writing-mode:lr-tb;fill:#000000;fill-opacity:1;fill-rule:nonzero;stroke:none"
         x="0 5.2303648 10.46073 15.691095 44.084503 49.314869 54.545235 59.7756 85.548843 90.779213 96.009575 101.23994 106.47031 129.4341 134.66446 139.89484 145.1252 150.35556"
         y="0"
         sodipodi:role="line"
         id="tspan80">TrueTrueFalseFalse</tspan></text>
    <path
       id="path81"
       d="M 0,0 V 11.955"
       style="fill:none;stroke:#000000;stroke-width:0.398;stroke-linecap:butt;stroke-linejoin:miter;stroke-miterlimit:10;stroke-dasharray:none;stroke-opacity:1"
       transform="matrix(1.3333333,0,0,-1.3333333,431.55333,564.14)" />
    <path
       id="path82"
       d="M 0,0 H 219.689"
       style="fill:none;stroke:#000000;stroke-width:0.398;stroke-linecap:butt;stroke-linejoin:miter;stroke-miterlimit:10;stroke-dasharray:none;stroke-opacity:1"
       transform="matrix(1.3333333,0,0,-1.3333333,138.9,564.40533)" />
    <path
       id="path83"
       d="M 0,0 V 11.955"
       style="fill:none;stroke:#000000;stroke-width:0.398;stroke-linecap:butt;stroke-linejoin:miter;stroke-miterlimit:10;stroke-dasharray:none;stroke-opacity:1"
       transform="matrix(1.3333333,0,0,-1.3333333,139.16533,580.08)" />
    <text
       id="text83"
       xml:space="preserve"
       transform="matrix(1.3333333,0,0,1.3333333,161.64533,575.29867)"><tspan
         style="font-variant:normal;font-weight:normal;font-size:9.9626px;font-family:'Latin Modern Roman';writing-mode:lr-tb;fill:#000000;fill-opacity:1;fill-rule:nonzero;stroke:none"
         x="0 6.5065742 13.701564"
         y="0"
         sodipodi:role="line"
         id="tspan83">RTL</tspan></text>
    <path
       id="path84"
       d="M 0,0 V 11.955"
       style="fill:none;stroke:#000000;stroke-width:0.398;stroke-linecap:butt;stroke-linejoin:miter;stroke-miterlimit:10;stroke-dasharray:none;stroke-opacity:1"
       transform="matrix(1.3333333,0,0,-1.3333333,196.44667,580.08)" />
    <text
       id="text84"
       xml:space="preserve"
       transform="matrix(1.3333333,0,0,1.3333333,212.15333,575.29867)"><tspan
         style="font-variant:normal;font-weight:normal;font-size:9.9626px;font-family:'Latin Modern Mono';writing-mode:lr-tb;fill:#000000;fill-opacity:1;fill-rule:nonzero;stroke:none"
         x="0 5.2303648 10.46073 15.691095 41.46434 46.694706 51.925072 57.155437 62.385799 88.169006 93.399376 98.629738 103.86011 132.0443 137.27466 142.50504 147.7354"
         y="0"
         sodipodi:role="line"
         id="tspan84">TrueFalseTrueTrue</tspan></text>
    <path
       id="path85"
       d="M 0,0 V 11.955"
       style="fill:none;stroke:#000000;stroke-width:0.398;stroke-linecap:butt;stroke-linejoin:miter;stroke-miterlimit:10;stroke-dasharray:none;stroke-opacity:1"
       transform="matrix(1.3333333,0,0,-1.3333333,431.55333,580.08)" />
    <path
       id="path86"
       d="M 0,0 H 219.689"
       style="fill:none;stroke:#000000;stroke-width:0.398;stroke-linecap:butt;stroke-linejoin:miter;stroke-miterlimit:10;stroke-dasharray:none;stroke-opacity:1"
       transform="matrix(1.3333333,0,0,-1.3333333,138.9,580.34667)" />
    <path
       id="path87"
       d="M 0,0 V 11.955"
       style="fill:none;stroke:#000000;stroke-width:0.398;stroke-linecap:butt;stroke-linejoin:miter;stroke-miterlimit:10;stroke-dasharray:none;stroke-opacity:1"
       transform="matrix(1.3333333,0,0,-1.3333333,139.16533,596.02133)" />
    <text
       id="text87"
       xml:space="preserve"
       transform="matrix(1.3333333,0,0,1.3333333,153.896,591.23867)"><tspan
         style="font-variant:normal;font-weight:normal;font-size:9.9626px;font-family:'Latin Modern Roman';writing-mode:lr-tb;fill:#000000;fill-opacity:1;fill-rule:nonzero;stroke:none"
         x="0 7.1949897 12.17629 20.199171"
         y="0"
         sodipodi:role="line"
         id="tspan87">Comb</tspan></text>
    <path
       id="path88"
       d="M 0,0 V 11.955"
       style="fill:none;stroke:#000000;stroke-width:0.398;stroke-linecap:butt;stroke-linejoin:miter;stroke-miterlimit:10;stroke-dasharray:none;stroke-opacity:1"
       transform="matrix(1.3333333,0,0,-1.3333333,196.44667,596.02133)" />
    <text
       id="text88"
       xml:space="preserve"
       transform="matrix(1.3333333,0,0,1.3333333,212.15333,591.23867)"><tspan
         style="font-variant:normal;font-weight:normal;font-size:9.9626px;font-family:'Latin Modern Mono';writing-mode:lr-tb;fill:#000000;fill-opacity:1;fill-rule:nonzero;stroke:none"
         x="0 5.2303648 10.46073 15.691095 41.46434 46.694706 51.925072 57.155437 62.385799 88.169006 93.399376 98.629738 103.86011 129.4341 134.66446 139.89484 145.1252 150.35556"
         y="0"
         sodipodi:role="line"
         id="tspan88">TrueFalseTrueFalse</tspan></text>
    <path
       id="path89"
       d="M 0,0 V 11.955"
       style="fill:none;stroke:#000000;stroke-width:0.398;stroke-linecap:butt;stroke-linejoin:miter;stroke-miterlimit:10;stroke-dasharray:none;stroke-opacity:1"
       transform="matrix(1.3333333,0,0,-1.3333333,431.55333,596.02133)" />
    <path
       id="path90"
       d="M 0,0 H 219.689"
       style="fill:none;stroke:#000000;stroke-width:0.398;stroke-linecap:butt;stroke-linejoin:miter;stroke-miterlimit:10;stroke-dasharray:none;stroke-opacity:1"
       transform="matrix(1.3333333,0,0,-1.3333333,138.9,596.28667)" />
    <path
       id="path91"
       d="M 0,0 V 11.955"
       style="fill:none;stroke:#000000;stroke-width:0.398;stroke-linecap:butt;stroke-linejoin:miter;stroke-miterlimit:10;stroke-dasharray:none;stroke-opacity:1"
       transform="matrix(1.3333333,0,0,-1.3333333,139.16533,611.96133)" />
    <text
       id="text91"
       xml:space="preserve"
       transform="matrix(1.3333333,0,0,1.3333333,147.40133,607.17867)"><tspan
         style="font-variant:normal;font-weight:normal;font-size:9.9626px;font-family:'Latin Modern Roman';writing-mode:lr-tb;fill:#000000;fill-opacity:1;fill-rule:nonzero;stroke:none"
         x="0 6.226625 11.207925 16.743145 22.278366 26.706741"
         y="0"
         sodipodi:role="line"
         id="tspan91">Ladder</tspan></text>
    <path
       id="path92"
       d="M 0,0 V 11.955"
       style="fill:none;stroke:#000000;stroke-width:0.398;stroke-linecap:butt;stroke-linejoin:miter;stroke-miterlimit:10;stroke-dasharray:none;stroke-opacity:1"
       transform="matrix(1.3333333,0,0,-1.3333333,196.44667,611.96133)" />
    <text
       id="text92"
       xml:space="preserve"
       transform="matrix(1.3333333,0,0,1.3333333,212.15333,607.17867)"><tspan
         style="font-variant:normal;font-weight:normal;font-size:9.9626px;font-family:'Latin Modern Mono';writing-mode:lr-tb;fill:#000000;fill-opacity:1;fill-rule:nonzero;stroke:none"
         x="0 5.2303648 10.46073 15.691095 44.084503 49.314869 54.545235 59.7756 88.169006 93.399376 98.629738 103.86011 129.4341 134.66446 139.89484 145.1252 150.35556"
         y="0"
         sodipodi:role="line"
         id="tspan92">TrueTrueTrueFalse</tspan></text>
    <path
       id="path93"
       d="M 0,0 V 11.955"
       style="fill:none;stroke:#000000;stroke-width:0.398;stroke-linecap:butt;stroke-linejoin:miter;stroke-miterlimit:10;stroke-dasharray:none;stroke-opacity:1"
       transform="matrix(1.3333333,0,0,-1.3333333,431.55333,611.96133)" />
    <path
       id="path94"
       d="M 0,0 H 219.689"
       style="fill:none;stroke:#000000;stroke-width:0.398;stroke-linecap:butt;stroke-linejoin:miter;stroke-miterlimit:10;stroke-dasharray:none;stroke-opacity:1"
       transform="matrix(1.3333333,0,0,-1.3333333,138.9,612.22667)" />
  </g>
</svg>
